{
	"asset":{
		"generator":"Khronos glTF Blender I/O v4.1.63",
		"version":"2.0"
	},
	"scene":0,
	"scenes":[
		{
			"name":"Scene",
			"nodes":[
				0,
				1,
				2,
				3,
				4
			]
		}
	],
	"nodes":[
		{
			"mesh":0,
			"name":"Background",
			"scale":[
				12.179271697998047,
				12.179271697998047,
				12.179271697998047
			]
		},
		{
			"mesh":1,
			"name":"Desk",
			"scale":[
				1,
				1,
				2.226168394088745
			],
			"translation":[
				0,
				0.9983780384063721,
				0
			]
		},
		{
			"mesh":2,
			"name":"Pot",
			"scale":[
				0.47020572423934937,
				0.47020572423934937,
				0.47020572423934937
			],
			"translation":[
				0,
				0.5,
				-3
			]
		},
		{
			"name":"PlantPot",
			"scale":[
				0.47020572423934937,
				0.47020572423934937,
				0.47020572423934937
			],
			"translation":[
				0,
				0.5,
				-3
			]
		},
		{
			"mesh":3,
			"name":"Cube",
			"rotation":[
				-0.004713313188403845,
				-0.11318687349557877,
				0.0413379892706871,
				0.992702305316925
			],
			"scale":[
				0.06292828172445297,
				0.6826854348182678,
				0.9652463793754578
			],
			"translation":[
				-0.4370279312133789,
				2.7315380573272705,
				-1.1379995346069336
			]
		}
	],
	"meshes":[
		{
			"name":"Plane",
			"primitives":[
				{
					"attributes":{
						"POSITION":0,
						"NORMAL":1,
						"TEXCOORD_0":2
					},
					"indices":3
				}
			]
		},
		{
			"name":"Cube.001",
			"primitives":[
				{
					"attributes":{
						"POSITION":4,
						"NORMAL":5,
						"TEXCOORD_0":6
					},
					"indices":7
				}
			]
		},
		{
			"name":"Cube.002",
			"primitives":[
				{
					"attributes":{
						"POSITION":8,
						"NORMAL":9,
						"TEXCOORD_0":10
					},
					"indices":11
				}
			]
		},
		{
			"name":"Cube",
			"primitives":[
				{
					"attributes":{
						"POSITION":12,
						"NORMAL":13,
						"TEXCOORD_0":14
					},
					"indices":15
				}
			]
		}
	],
	"accessors":[
		{
			"bufferView":0,
			"componentType":5126,
			"count":68,
			"max":[
				1,
				1.2387065887451172,
				1
			],
			"min":[
				-1,
				0,
				-1
			],
			"type":"VEC3"
		},
		{
			"bufferView":1,
			"componentType":5126,
			"count":68,
			"type":"VEC3"
		},
		{
			"bufferView":2,
			"componentType":5126,
			"count":68,
			"type":"VEC2"
		},
		{
			"bufferView":3,
			"componentType":5123,
			"count":102,
			"type":"SCALAR"
		},
		{
			"bufferView":4,
			"componentType":5126,
			"count":102,
			"max":[
				1,
				0.6445835828781128,
				1
			],
			"min":[
				-1,
				-1.0408744812011719,
				-1
			],
			"type":"VEC3"
		},
		{
			"bufferView":5,
			"componentType":5126,
			"count":102,
			"type":"VEC3"
		},
		{
			"bufferView":6,
			"componentType":5126,
			"count":102,
			"type":"VEC2"
		},
		{
			"bufferView":7,
			"componentType":5123,
			"count":180,
			"type":"SCALAR"
		},
		{
			"bufferView":8,
			"componentType":5126,
			"count":144,
			"max":[
				1,
				1,
				0.9226804971694946
			],
			"min":[
				-1,
				-1,
				-0.9226803779602051
			],
			"type":"VEC3"
		},
		{
			"bufferView":9,
			"componentType":5126,
			"count":144,
			"type":"VEC3"
		},
		{
			"bufferView":10,
			"componentType":5126,
			"count":144,
			"type":"VEC2"
		},
		{
			"bufferView":11,
			"componentType":5123,
			"count":276,
			"type":"SCALAR"
		},
		{
			"bufferView":12,
			"componentType":5126,
			"count":240,
			"max":[
				13.53820514678955,
				0.9197954535484314,
				3.0543370246887207
			],
			"min":[
				-4.059899806976318,
				-1.6767746210098267,
				-1
			],
			"type":"VEC3"
		},
		{
			"bufferView":13,
			"componentType":5126,
			"count":240,
			"type":"VEC3"
		},
		{
			"bufferView":14,
			"componentType":5126,
			"count":240,
			"type":"VEC2"
		},
		{
			"bufferView":15,
			"componentType":5123,
			"count":408,
			"type":"SCALAR"
		}
	],
	"bufferViews":[
		{
			"buffer":0,
			"byteLength":816,
			"byteOffset":0,
			"target":34962
		},
		{
			"buffer":0,
			"byteLength":816,
			"byteOffset":816,
			"target":34962
		},
		{
			"buffer":0,
			"byteLength":544,
			"byteOffset":1632,
			"target":34962
		},
		{
			"buffer":0,
			"byteLength":204,
			"byteOffset":2176,
			"target":34963
		},
		{
			"buffer":0,
			"byteLength":1224,
			"byteOffset":2380,
			"target":34962
		},
		{
			"buffer":0,
			"byteLength":1224,
			"byteOffset":3604,
			"target":34962
		},
		{
			"buffer":0,
			"byteLength":816,
			"byteOffset":4828,
			"target":34962
		},
		{
			"buffer":0,
			"byteLength":360,
			"byteOffset":5644,
			"target":34963
		},
		{
			"buffer":0,
			"byteLength":1728,
			"byteOffset":6004,
			"target":34962
		},
		{
			"buffer":0,
			"byteLength":1728,
			"byteOffset":7732,
			"target":34962
		},
		{
			"buffer":0,
			"byteLength":1152,
			"byteOffset":9460,
			"target":34962
		},
		{
			"buffer":0,
			"byteLength":552,
			"byteOffset":10612,
			"target":34963
		},
		{
			"buffer":0,
			"byteLength":2880,
			"byteOffset":11164,
			"target":34962
		},
		{
			"buffer":0,
			"byteLength":2880,
			"byteOffset":14044,
			"target":34962
		},
		{
			"buffer":0,
			"byteLength":1920,
			"byteOffset":16924,
			"target":34962
		},
		{
			"buffer":0,
			"byteLength":816,
			"byteOffset":18844,
			"target":34963
		}
	],
	"buffers":[
		{
			"byteLength":19660,
			"uri":"desk.bin"
		}
	]
}
