{
	"asset":{
		"generator":"Khronos glTF Blender I/O v4.2.60",
		"version":"2.0"
	},
	"scene":0,
	"scenes":[
		{
			"name":"Scene",
			"nodes":[
				0,
				1,
				2,
				3,
				4,
				5
			]
		}
	],
	"nodes":[
		{
			"mesh":0,
			"name":"Landing",
			"rotation":[
				1,
				0,
				0,
				0
			],
			"scale":[
				-0.08074714243412018,
				-0.08074714243412018,
				-0.5855388045310974
			],
			"translation":[
				-0.0004129565495532006,
				-0.12771156430244446,
				-0.023713335394859314
			]
		},
		{
			"mesh":1,
			"name":"Body",
			"scale":[
				0.5,
				0.5,
				0.5
			],
			"translation":[
				-0.0002446770668029785,
				0.08871438354253769,
				-0.01404988020658493
			]
		},
		{
			"mesh":2,
			"name":"TailWings",
			"scale":[
				0.19146934151649475,
				0.19146934151649475,
				0.19146934151649475
			],
			"translation":[
				-0.0004129565495532006,
				-0.20622843503952026,
				0.14820511639118195
			]
		},
		{
			"mesh":3,
			"name":"Rotor",
			"scale":[
				0.0287379939109087,
				0.0287379939109087,
				0.0287379939109087
			],
			"translation":[
				-0.0004129565495532006,
				0.31322669982910156,
				-0.49962663650512695
			]
		},
		{
			"name":"RightWindEnd",
			"scale":[
				0.19146934151649475,
				0.19146934151649475,
				0.19146934151649475
			],
			"translation":[
				1.1421931982040405,
				0.5005227327346802,
				0.10864140093326569
			]
		},
		{
			"name":"LeftWingEnd",
			"scale":[
				0.19146934151649475,
				0.19146934151649475,
				0.19146934151649475
			],
			"translation":[
				-1.1436458826065063,
				0.4960486888885498,
				0.111944779753685
			]
		}
	],
	"materials":[
		{
			"doubleSided":true,
			"name":"BodyWhite",
			"pbrMetallicRoughness":{
				"baseColorFactor":[
					0.800000011920929,
					0.800000011920929,
					0.800000011920929,
					1
				],
				"metallicFactor":0,
				"roughnessFactor":0.5
			}
		},
		{
			"doubleSided":true,
			"name":"BodyColor",
			"pbrMetallicRoughness":{
				"baseColorFactor":[
					0.799098789691925,
					0.059511203318834305,
					0.06480330973863602,
					1
				],
				"metallicFactor":0,
				"roughnessFactor":0.5
			}
		},
		{
			"doubleSided":true,
			"name":"Window",
			"pbrMetallicRoughness":{
				"baseColorFactor":[
					0.06662457436323166,
					0.5840790271759033,
					0.879622757434845,
					1
				],
				"metallicFactor":0,
				"roughnessFactor":0.5
			}
		},
		{
			"doubleSided":true,
			"name":"Metal",
			"pbrMetallicRoughness":{
				"baseColorFactor":[
					0.011780362576246262,
					0.011780362576246262,
					0.011780362576246262,
					1
				],
				"metallicFactor":0,
				"roughnessFactor":0.5
			}
		},
		{
			"doubleSided":true,
			"name":"Pale",
			"pbrMetallicRoughness":{
				"baseColorFactor":[
					0.2888903319835663,
					0.2888903319835663,
					0.2888903319835663,
					1
				],
				"metallicFactor":0,
				"roughnessFactor":0.5
			}
		}
	],
	"meshes":[
		{
			"name":"Cube.004",
			"primitives":[
				{
					"attributes":{
						"POSITION":0,
						"NORMAL":1,
						"TEXCOORD_0":2
					},
					"indices":3,
					"material":0
				},
				{
					"attributes":{
						"POSITION":4,
						"NORMAL":5,
						"TEXCOORD_0":6
					},
					"indices":7,
					"material":1
				}
			]
		},
		{
			"name":"Cube.005",
			"primitives":[
				{
					"attributes":{
						"POSITION":8,
						"NORMAL":9,
						"TEXCOORD_0":10
					},
					"indices":11,
					"material":1
				},
				{
					"attributes":{
						"POSITION":12,
						"NORMAL":13,
						"TEXCOORD_0":14
					},
					"indices":15,
					"material":0
				},
				{
					"attributes":{
						"POSITION":16,
						"NORMAL":17,
						"TEXCOORD_0":18
					},
					"indices":19,
					"material":2
				},
				{
					"attributes":{
						"POSITION":20,
						"NORMAL":21,
						"TEXCOORD_0":22
					},
					"indices":23,
					"material":3
				}
			]
		},
		{
			"name":"Cube",
			"primitives":[
				{
					"attributes":{
						"POSITION":24,
						"NORMAL":25,
						"TEXCOORD_0":26
					},
					"indices":27,
					"material":1
				}
			]
		},
		{
			"name":"Cube.001",
			"primitives":[
				{
					"attributes":{
						"POSITION":28,
						"NORMAL":29,
						"TEXCOORD_0":30
					},
					"indices":31,
					"material":3
				},
				{
					"attributes":{
						"POSITION":32,
						"NORMAL":33,
						"TEXCOORD_0":34
					},
					"indices":35,
					"material":4
				}
			]
		}
	],
	"accessors":[
		{
			"bufferView":0,
			"componentType":5126,
			"count":260,
			"max":[
				3.9713058471679688,
				3.946640968322754,
				1.1871552467346191
			],
			"min":[
				-3.9713058471679688,
				-0.7628779411315918,
				-0.9444485306739807
			],
			"type":"VEC3"
		},
		{
			"bufferView":1,
			"componentType":5126,
			"count":260,
			"type":"VEC3"
		},
		{
			"bufferView":2,
			"componentType":5126,
			"count":260,
			"type":"VEC2"
		},
		{
			"bufferView":3,
			"componentType":5123,
			"count":384,
			"type":"SCALAR"
		},
		{
			"bufferView":4,
			"componentType":5126,
			"count":44,
			"max":[
				3.9713058471679688,
				1.1162647008895874,
				1.1878163814544678
			],
			"min":[
				-3.9713058471679688,
				-0.4921547472476959,
				-1
			],
			"type":"VEC3"
		},
		{
			"bufferView":5,
			"componentType":5126,
			"count":44,
			"type":"VEC3"
		},
		{
			"bufferView":6,
			"componentType":5126,
			"count":44,
			"type":"VEC2"
		},
		{
			"bufferView":7,
			"componentType":5123,
			"count":72,
			"type":"SCALAR"
		},
		{
			"bufferView":8,
			"componentType":5126,
			"count":398,
			"max":[
				0.3301953673362732,
				0.8668316602706909,
				2.2382941246032715
			],
			"min":[
				-0.3308684825897217,
				0.1798500120639801,
				-1.0059789419174194
			],
			"type":"VEC3"
		},
		{
			"bufferView":9,
			"componentType":5126,
			"count":398,
			"type":"VEC3"
		},
		{
			"bufferView":10,
			"componentType":5126,
			"count":398,
			"type":"VEC2"
		},
		{
			"bufferView":11,
			"componentType":5123,
			"count":663,
			"type":"SCALAR"
		},
		{
			"bufferView":12,
			"componentType":5126,
			"count":387,
			"max":[
				2.2972958087921143,
				0.8904002904891968,
				2.2382941246032715
			],
			"min":[
				-2.297969102859497,
				0.1798500120639801,
				-1.0059789419174194
			],
			"type":"VEC3"
		},
		{
			"bufferView":13,
			"componentType":5126,
			"count":387,
			"type":"VEC3"
		},
		{
			"bufferView":14,
			"componentType":5126,
			"count":387,
			"type":"VEC2"
		},
		{
			"bufferView":15,
			"componentType":5123,
			"count":678,
			"type":"SCALAR"
		},
		{
			"bufferView":16,
			"componentType":5126,
			"count":42,
			"max":[
				0.31412819027900696,
				0.8554322719573975,
				0.47786957025527954
			],
			"min":[
				-0.31480130553245544,
				0.5149179697036743,
				-0.5875517129898071
			],
			"type":"VEC3"
		},
		{
			"bufferView":17,
			"componentType":5126,
			"count":42,
			"type":"VEC3"
		},
		{
			"bufferView":18,
			"componentType":5126,
			"count":42,
			"type":"VEC2"
		},
		{
			"bufferView":19,
			"componentType":5123,
			"count":54,
			"type":"SCALAR"
		},
		{
			"bufferView":20,
			"componentType":5126,
			"count":80,
			"max":[
				0.1756221204996109,
				0.48139432072639465,
				-0.9517701864242554
			],
			"min":[
				-0.1762952357530594,
				0.4161531627178192,
				-1.0059789419174194
			],
			"type":"VEC3"
		},
		{
			"bufferView":21,
			"componentType":5126,
			"count":80,
			"type":"VEC3"
		},
		{
			"bufferView":22,
			"componentType":5126,
			"count":80,
			"type":"VEC2"
		},
		{
			"bufferView":23,
			"componentType":5123,
			"count":132,
			"type":"SCALAR"
		},
		{
			"bufferView":24,
			"componentType":5126,
			"count":176,
			"max":[
				1.7321982383728027,
				5.208627700805664,
				5.0796284675598145
			],
			"min":[
				-1.7321982383728027,
				3,
				3.5020556449890137
			],
			"type":"VEC3"
		},
		{
			"bufferView":25,
			"componentType":5126,
			"count":176,
			"type":"VEC3"
		},
		{
			"bufferView":26,
			"componentType":5126,
			"count":176,
			"type":"VEC2"
		},
		{
			"bufferView":27,
			"componentType":5123,
			"count":348,
			"type":"SCALAR"
		},
		{
			"bufferView":28,
			"componentType":5126,
			"count":44,
			"max":[
				1.000000238418579,
				1.000000238418579,
				1
			],
			"min":[
				-1.000000238418579,
				-1.000000238418579,
				-2.0978877544403076
			],
			"type":"VEC3"
		},
		{
			"bufferView":29,
			"componentType":5126,
			"count":44,
			"type":"VEC3"
		},
		{
			"bufferView":30,
			"componentType":5126,
			"count":44,
			"type":"VEC2"
		},
		{
			"bufferView":31,
			"componentType":5123,
			"count":72,
			"type":"SCALAR"
		},
		{
			"bufferView":32,
			"componentType":5126,
			"count":76,
			"max":[
				10.020670890808105,
				1.000000238418579,
				-1.1591360569000244
			],
			"min":[
				-10.020670890808105,
				-1.000000238418579,
				-1.4050310850143433
			],
			"type":"VEC3"
		},
		{
			"bufferView":33,
			"componentType":5126,
			"count":76,
			"type":"VEC3"
		},
		{
			"bufferView":34,
			"componentType":5126,
			"count":76,
			"type":"VEC2"
		},
		{
			"bufferView":35,
			"componentType":5123,
			"count":132,
			"type":"SCALAR"
		}
	],
	"bufferViews":[
		{
			"buffer":0,
			"byteLength":3120,
			"byteOffset":0,
			"target":34962
		},
		{
			"buffer":0,
			"byteLength":3120,
			"byteOffset":3120,
			"target":34962
		},
		{
			"buffer":0,
			"byteLength":2080,
			"byteOffset":6240,
			"target":34962
		},
		{
			"buffer":0,
			"byteLength":768,
			"byteOffset":8320,
			"target":34963
		},
		{
			"buffer":0,
			"byteLength":528,
			"byteOffset":9088,
			"target":34962
		},
		{
			"buffer":0,
			"byteLength":528,
			"byteOffset":9616,
			"target":34962
		},
		{
			"buffer":0,
			"byteLength":352,
			"byteOffset":10144,
			"target":34962
		},
		{
			"buffer":0,
			"byteLength":144,
			"byteOffset":10496,
			"target":34963
		},
		{
			"buffer":0,
			"byteLength":4776,
			"byteOffset":10640,
			"target":34962
		},
		{
			"buffer":0,
			"byteLength":4776,
			"byteOffset":15416,
			"target":34962
		},
		{
			"buffer":0,
			"byteLength":3184,
			"byteOffset":20192,
			"target":34962
		},
		{
			"buffer":0,
			"byteLength":1326,
			"byteOffset":23376,
			"target":34963
		},
		{
			"buffer":0,
			"byteLength":4644,
			"byteOffset":24704,
			"target":34962
		},
		{
			"buffer":0,
			"byteLength":4644,
			"byteOffset":29348,
			"target":34962
		},
		{
			"buffer":0,
			"byteLength":3096,
			"byteOffset":33992,
			"target":34962
		},
		{
			"buffer":0,
			"byteLength":1356,
			"byteOffset":37088,
			"target":34963
		},
		{
			"buffer":0,
			"byteLength":504,
			"byteOffset":38444,
			"target":34962
		},
		{
			"buffer":0,
			"byteLength":504,
			"byteOffset":38948,
			"target":34962
		},
		{
			"buffer":0,
			"byteLength":336,
			"byteOffset":39452,
			"target":34962
		},
		{
			"buffer":0,
			"byteLength":108,
			"byteOffset":39788,
			"target":34963
		},
		{
			"buffer":0,
			"byteLength":960,
			"byteOffset":39896,
			"target":34962
		},
		{
			"buffer":0,
			"byteLength":960,
			"byteOffset":40856,
			"target":34962
		},
		{
			"buffer":0,
			"byteLength":640,
			"byteOffset":41816,
			"target":34962
		},
		{
			"buffer":0,
			"byteLength":264,
			"byteOffset":42456,
			"target":34963
		},
		{
			"buffer":0,
			"byteLength":2112,
			"byteOffset":42720,
			"target":34962
		},
		{
			"buffer":0,
			"byteLength":2112,
			"byteOffset":44832,
			"target":34962
		},
		{
			"buffer":0,
			"byteLength":1408,
			"byteOffset":46944,
			"target":34962
		},
		{
			"buffer":0,
			"byteLength":696,
			"byteOffset":48352,
			"target":34963
		},
		{
			"buffer":0,
			"byteLength":528,
			"byteOffset":49048,
			"target":34962
		},
		{
			"buffer":0,
			"byteLength":528,
			"byteOffset":49576,
			"target":34962
		},
		{
			"buffer":0,
			"byteLength":352,
			"byteOffset":50104,
			"target":34962
		},
		{
			"buffer":0,
			"byteLength":144,
			"byteOffset":50456,
			"target":34963
		},
		{
			"buffer":0,
			"byteLength":912,
			"byteOffset":50600,
			"target":34962
		},
		{
			"buffer":0,
			"byteLength":912,
			"byteOffset":51512,
			"target":34962
		},
		{
			"buffer":0,
			"byteLength":608,
			"byteOffset":52424,
			"target":34962
		},
		{
			"buffer":0,
			"byteLength":264,
			"byteOffset":53032,
			"target":34963
		}
	],
	"buffers":[
		{
			"byteLength":53296,
			"uri":"hydravion.bin"
		}
	]
}
