{
	"asset":{
		"generator":"Khronos glTF Blender I/O v4.2.57",
		"version":"2.0"
	},
	"scene":0,
	"scenes":[
		{
			"name":"Scene",
			"nodes":[
				0
			]
		}
	],
	"nodes":[
		{
			"mesh":0,
			"name":"Water",
			"translation":[
				0,
				1.8364686965942383,
				0
			]
		}
	],
	"materials":[
		{
			"alphaMode":"BLEND",
			"doubleSided":true,
			"name":"Material",
			"pbrMetallicRoughness":{
				"baseColorFactor":[
					0.800000011920929,
					0.800000011920929,
					0.800000011920929,
					0.3134920597076416
				],
				"metallicFactor":0,
				"roughnessFactor":0.5
			}
		}
	],
	"meshes":[
		{
			"name":"Plane.001",
			"primitives":[
				{
					"attributes":{
						"POSITION":0,
						"NORMAL":1,
						"TEXCOORD_0":2
					},
					"indices":3,
					"material":0
				}
			]
		}
	],
	"accessors":[
		{
			"bufferView":0,
			"componentType":5126,
			"count":4120,
			"max":[
				50.000022888183594,
				2.4968795776367188,
				50.0000114440918
			],
			"min":[
				-50.00001525878906,
				-5.034968852996826,
				-50.000022888183594
			],
			"type":"VEC3"
		},
		{
			"bufferView":1,
			"componentType":5126,
			"count":4120,
			"type":"VEC3"
		},
		{
			"bufferView":2,
			"componentType":5126,
			"count":4120,
			"type":"VEC2"
		},
		{
			"bufferView":3,
			"componentType":5123,
			"count":12138,
			"type":"SCALAR"
		}
	],
	"bufferViews":[
		{
			"buffer":0,
			"byteLength":49440,
			"byteOffset":0,
			"target":34962
		},
		{
			"buffer":0,
			"byteLength":49440,
			"byteOffset":49440,
			"target":34962
		},
		{
			"buffer":0,
			"byteLength":32960,
			"byteOffset":98880,
			"target":34962
		},
		{
			"buffer":0,
			"byteLength":24276,
			"byteOffset":131840,
			"target":34963
		}
	],
	"buffers":[
		{
			"byteLength":156116,
			"uri":"water.bin"
		}
	]
}
