{
	"asset":{
		"generator":"Khronos glTF Blender I/O v4.2.57",
		"version":"2.0"
	},
	"scene":0,
	"scenes":[
		{
			"name":"Scene",
			"nodes":[
				0,
				1
			]
		}
	],
	"nodes":[
		{
			"mesh":0,
			"name":"Islands",
			"scale":[
				1,
				1.4123600721359253,
				1
			],
			"translation":[
				0,
				-0.10669386386871338,
				0
			]
		},
		{
			"mesh":1,
			"name":"Ground",
			"translation":[
				0,
				1.8364686965942383,
				0
			]
		}
	],
	"meshes":[
		{
			"name":"Plane",
			"primitives":[
				{
					"attributes":{
						"POSITION":0,
						"NORMAL":1,
						"TEXCOORD_0":2
					},
					"indices":3
				}
			]
		},
		{
			"name":"Plane.002",
			"primitives":[
				{
					"attributes":{
						"POSITION":4,
						"NORMAL":5,
						"TEXCOORD_0":6
					},
					"indices":7
				}
			]
		}
	],
	"accessors":[
		{
			"bufferView":0,
			"componentType":5126,
			"count":19169,
			"max":[
				48.75468063354492,
				13.277504920959473,
				47.20095443725586
			],
			"min":[
				-48.06238555908203,
				-0.2510508596897125,
				-48.09384536743164
			],
			"type":"VEC3"
		},
		{
			"bufferView":1,
			"componentType":5126,
			"count":19169,
			"type":"VEC3"
		},
		{
			"bufferView":2,
			"componentType":5126,
			"count":19169,
			"type":"VEC2"
		},
		{
			"bufferView":3,
			"componentType":5123,
			"count":115008,
			"type":"SCALAR"
		},
		{
			"bufferView":4,
			"componentType":5126,
			"count":6396,
			"max":[
				50.000022888183594,
				0,
				50.0000114440918
			],
			"min":[
				-50.00001525878906,
				-17.45132827758789,
				-50.000022888183594
			],
			"type":"VEC3"
		},
		{
			"bufferView":5,
			"componentType":5126,
			"count":6396,
			"type":"VEC3"
		},
		{
			"bufferView":6,
			"componentType":5126,
			"count":6396,
			"type":"VEC2"
		},
		{
			"bufferView":7,
			"componentType":5123,
			"count":13194,
			"type":"SCALAR"
		}
	],
	"bufferViews":[
		{
			"buffer":0,
			"byteLength":230028,
			"byteOffset":0,
			"target":34962
		},
		{
			"buffer":0,
			"byteLength":230028,
			"byteOffset":230028,
			"target":34962
		},
		{
			"buffer":0,
			"byteLength":153352,
			"byteOffset":460056,
			"target":34962
		},
		{
			"buffer":0,
			"byteLength":230016,
			"byteOffset":613408,
			"target":34963
		},
		{
			"buffer":0,
			"byteLength":76752,
			"byteOffset":843424,
			"target":34962
		},
		{
			"buffer":0,
			"byteLength":76752,
			"byteOffset":920176,
			"target":34962
		},
		{
			"buffer":0,
			"byteLength":51168,
			"byteOffset":996928,
			"target":34962
		},
		{
			"buffer":0,
			"byteLength":26388,
			"byteOffset":1048096,
			"target":34963
		}
	],
	"buffers":[
		{
			"byteLength":1074484,
			"uri":"world.bin"
		}
	]
}
