{
	"asset":{
		"generator":"Khronos glTF Blender I/O v4.2.60",
		"version":"2.0"
	},
	"scene":0,
	"scenes":[
		{
			"name":"Scene",
			"nodes":[
				0,
				1
			]
		}
	],
	"nodes":[
		{
			"mesh":0,
			"name":"Islands",
			"scale":[
				1,
				1.4123600721359253,
				1
			],
			"translation":[
				0,
				-0.10669386386871338,
				0
			]
		},
		{
			"mesh":1,
			"name":"Ground",
			"translation":[
				0,
				1.8364686965942383,
				0
			]
		}
	],
	"materials":[
		{
			"doubleSided":true,
			"name":"Material.001",
			"pbrMetallicRoughness":{
				"baseColorTexture":{
					"index":0
				},
				"metallicFactor":0,
				"roughnessFactor":0.5
			}
		}
	],
	"meshes":[
		{
			"name":"Plane",
			"primitives":[
				{
					"attributes":{
						"POSITION":0,
						"NORMAL":1,
						"TEXCOORD_0":2
					},
					"indices":3,
					"material":0
				}
			]
		},
		{
			"name":"Plane.002",
			"primitives":[
				{
					"attributes":{
						"POSITION":4,
						"NORMAL":5,
						"TEXCOORD_0":6
					},
					"indices":7
				}
			]
		}
	],
	"textures":[
		{
			"sampler":0,
			"source":0
		}
	],
	"images":[
		{
			"mimeType":"image/png",
			"name":"world_texture",
			"uri":"world_texture.png"
		}
	],
	"accessors":[
		{
			"bufferView":0,
			"componentType":5126,
			"count":14581,
			"max":[
				48.75468063354492,
				13.277504920959473,
				47.20095443725586
			],
			"min":[
				-48.06238555908203,
				0.37975168228149414,
				-48.09384536743164
			],
			"type":"VEC3"
		},
		{
			"bufferView":1,
			"componentType":5126,
			"count":14581,
			"type":"VEC3"
		},
		{
			"bufferView":2,
			"componentType":5126,
			"count":14581,
			"type":"VEC2"
		},
		{
			"bufferView":3,
			"componentType":5123,
			"count":84741,
			"type":"SCALAR"
		},
		{
			"bufferView":4,
			"componentType":5126,
			"count":6396,
			"max":[
				50.000022888183594,
				0,
				50.0000114440918
			],
			"min":[
				-50.00001525878906,
				-17.45132827758789,
				-50.000022888183594
			],
			"type":"VEC3"
		},
		{
			"bufferView":5,
			"componentType":5126,
			"count":6396,
			"type":"VEC3"
		},
		{
			"bufferView":6,
			"componentType":5126,
			"count":6396,
			"type":"VEC2"
		},
		{
			"bufferView":7,
			"componentType":5123,
			"count":13194,
			"type":"SCALAR"
		}
	],
	"bufferViews":[
		{
			"buffer":0,
			"byteLength":174972,
			"byteOffset":0,
			"target":34962
		},
		{
			"buffer":0,
			"byteLength":174972,
			"byteOffset":174972,
			"target":34962
		},
		{
			"buffer":0,
			"byteLength":116648,
			"byteOffset":349944,
			"target":34962
		},
		{
			"buffer":0,
			"byteLength":169482,
			"byteOffset":466592,
			"target":34963
		},
		{
			"buffer":0,
			"byteLength":76752,
			"byteOffset":636076,
			"target":34962
		},
		{
			"buffer":0,
			"byteLength":76752,
			"byteOffset":712828,
			"target":34962
		},
		{
			"buffer":0,
			"byteLength":51168,
			"byteOffset":789580,
			"target":34962
		},
		{
			"buffer":0,
			"byteLength":26388,
			"byteOffset":840748,
			"target":34963
		}
	],
	"samplers":[
		{
			"magFilter":9729,
			"minFilter":9987
		}
	],
	"buffers":[
		{
			"byteLength":867136,
			"uri":"world.bin"
		}
	]
}
