{
	"asset":{
		"generator":"Khronos glTF Blender I/O v4.2.57",
		"version":"2.0"
	},
	"scene":0,
	"scenes":[
		{
			"name":"Scene",
			"nodes":[
				0
			]
		}
	],
	"nodes":[
		{
			"mesh":0,
			"name":"Plane",
			"scale":[
				50,
				1,
				50
			]
		}
	],
	"materials":[
		{
			"doubleSided":true,
			"name":"Sand"
		},
		{
			"doubleSided":true,
			"name":"Grass",
			"pbrMetallicRoughness":{
				"baseColorFactor":[
					0.13643349707126617,
					0.6735841035842896,
					0.11632664501667023,
					1
				],
				"metallicFactor":0,
				"roughnessFactor":0.5
			}
		}
	],
	"meshes":[
		{
			"name":"Plane",
			"primitives":[
				{
					"attributes":{
						"POSITION":0,
						"NORMAL":1,
						"TEXCOORD_0":2
					},
					"indices":3,
					"material":0
				},
				{
					"attributes":{
						"POSITION":4,
						"NORMAL":5,
						"TEXCOORD_0":6
					},
					"indices":7,
					"material":1
				}
			]
		}
	],
	"accessors":[
		{
			"bufferView":0,
			"componentType":5126,
			"count":3630,
			"max":[
				1,
				15.400887489318848,
				1
			],
			"min":[
				-1,
				-3.812865734100342,
				-1
			],
			"type":"VEC3"
		},
		{
			"bufferView":1,
			"componentType":5126,
			"count":3630,
			"type":"VEC3"
		},
		{
			"bufferView":2,
			"componentType":5126,
			"count":3630,
			"type":"VEC2"
		},
		{
			"bufferView":3,
			"componentType":5123,
			"count":8502,
			"type":"SCALAR"
		},
		{
			"bufferView":4,
			"componentType":5126,
			"count":938,
			"max":[
				0.7073171734809875,
				15.400887489318848,
				0.7560974955558777
			],
			"min":[
				-0.6097559928894043,
				-2.459620475769043,
				-0.7073171734809875
			],
			"type":"VEC3"
		},
		{
			"bufferView":5,
			"componentType":5126,
			"count":938,
			"type":"VEC3"
		},
		{
			"bufferView":6,
			"componentType":5126,
			"count":938,
			"type":"VEC2"
		},
		{
			"bufferView":7,
			"componentType":5123,
			"count":1584,
			"type":"SCALAR"
		}
	],
	"bufferViews":[
		{
			"buffer":0,
			"byteLength":43560,
			"byteOffset":0,
			"target":34962
		},
		{
			"buffer":0,
			"byteLength":43560,
			"byteOffset":43560,
			"target":34962
		},
		{
			"buffer":0,
			"byteLength":29040,
			"byteOffset":87120,
			"target":34962
		},
		{
			"buffer":0,
			"byteLength":17004,
			"byteOffset":116160,
			"target":34963
		},
		{
			"buffer":0,
			"byteLength":11256,
			"byteOffset":133164,
			"target":34962
		},
		{
			"buffer":0,
			"byteLength":11256,
			"byteOffset":144420,
			"target":34962
		},
		{
			"buffer":0,
			"byteLength":7504,
			"byteOffset":155676,
			"target":34962
		},
		{
			"buffer":0,
			"byteLength":3168,
			"byteOffset":163180,
			"target":34963
		}
	],
	"buffers":[
		{
			"byteLength":166348,
			"uri":"world.bin"
		}
	]
}
